<?xml version="1.0" encoding="UTF-8"?>
<svg id="Layer_1" data-name="Layer 1" xmlns="http://www.w3.org/2000/svg" viewBox="0 0 500 240">
  <defs>
    <style>
      .cls-1 {
        fill: #dcdedc;
      }

      .cls-2 {
        fill: #dfdfdf;
      }

      .cls-3 {
        fill: #49a0b4;
      }
    </style>
  </defs>
  <path class="cls-3" d="m13.29,121.82c-.84-5.57-1-11.19-.72-16.8.29-5.54,1.34-10.96,2.97-16.27,1.72-5.58,4.25-10.75,8.01-15.25,2.52-3.02,5.41-5.63,8.84-7.61.24-.14.48-.27.74-.38,1.32-.57,1.86-.21,2.06,1.21.62,4.32,1.46,8.6,2.5,12.84,1.83,7.43,4.32,14.63,7.38,21.63,1.26,2.89,2.46,5.81,3.95,8.59,1.75,3.27,3.7,6.42,5.41,9.71,3.55,6.83,6.87,13.76,9.9,20.83,2.25,5.24,4.17,10.6,6,15.99,2.05,6.05,3.65,12.22,4.86,18.5.61,3.18,1.02,6.38,1.6,9.56.04.24.02.5.03.75-.26,1.04-.95,1.51-1.99,1.69-2.55.45-5.08.72-7.68.53-5.94-.43-11.46-2.12-16.63-5.05-4.63-2.63-8.8-5.85-12.57-9.6-2.68-2.66-5.11-5.52-7.41-8.5l-1.22-1.82c-1.15-1.73-2.29-3.47-3.44-5.2-.09-.28-.26-.51-.48-.71-.09-.36-.28-.67-.53-.95-.08-.15-.16-.3-.23-.44-1.65-2.69-2.95-5.56-4.21-8.43-1.79-4.12-3.37-8.32-4.57-12.66-.02-.11-.03-.22-.05-.33-1.07-3.89-1.84-7.85-2.53-11.83Z"/>
  <path class="cls-2" d="m50.12,60.62c2.22-.11,4.4.26,6.59.5.1.03.2.06.3.09.62.12,1.25.23,1.87.35.15.05.31.1.46.15.66.18,1.32.36,1.97.53.09.12.22.15.36.13,3.63,1.15,7,2.86,10.19,4.89,2.17,1.38,4.36,2.77,6.25,4.55.54,1.3,1.7,2.02,2.73,2.86,2.55,2.61,4.91,5.39,7.11,8.3,2.87,3.79,5.44,7.78,7.65,11.99.06.12.14.23.22.34.34.94.78,1.83,1.33,2.65,1.5,3.32,3.02,6.64,4.19,10.1-.01.13,0,.26.11.35.24,1.17.66,2.28,1.1,3.38,1.38,3.43,1.98,7.04,2.65,10.65.34,1.82.67,3.63.87,5.46.62,5.83.9,11.66.28,17.52-.5,4.72-1.47,9.34-2.7,13.91-.48,1.29-.97,2.58-1.45,3.86-.33.57-.54,1.19-.73,1.82-.5,1.05-1,2.1-1.5,3.15-.46.57-.81,1.21-1.12,1.88-.74,1.07-1.48,2.14-2.22,3.21-.89,1.11-1.72,2.28-2.8,3.22-.32.24-.63.49-.83.84-.16.06-.27.18-.33.33-1.15,1.12-2.43,2.1-3.68,3.1-.22.14-.43.29-.65.43-.22.14-.45.29-.67.43-1.08.46-2.03,1.19-3.16,1.55-.27-.03-.55-.06-.82-.09-.66-.55-.74-1.38-.82-2.09-.39-3.89-1.25-7.68-2.14-11.47-.64-2.74-1.7-5.42-2.02-8.2-.72-6.1-3.22-11.61-5.22-17.3-2.38-6.76-5.38-13.25-8.39-19.75-1.74-3.76-3.46-7.56-5.6-11.09-1.34-2.21-2.83-4.34-4.03-6.63-2.35-4.51-4.38-9.17-6.13-13.95-2.11-5.8-3.75-11.72-5.01-17.76-.69-3.33-1.19-6.68-1.63-10.05-.06-.49-.24-.95-.2-1.46.06-.89.46-1.52,1.33-1.76,1.65-.46,3.36-.63,5.05-.85,0,0,.05.02.05.02l.05-.03c.25-.02.5-.04.75-.06.14.08.27.08.39-.03Z"/>
  <path class="cls-3" d="m129.65,131.15c-.34.5-.74.97-1.02,1.51-.55,1.05-1.42,1.41-2.55,1.29-.93-.59-1.85-1.2-2.79-1.77-1.57-.95-2.76-2.36-4.04-3.6-.95-.92-1.63-2.2-2.4-3.33-1.46-2.16-2.47-4.55-3.49-6.93-.53-1.88-1.07-3.75-1.6-5.63-.16-.77-.33-1.53-.49-2.3-.11-1.27-.22-2.54-.33-3.82-.05-.55-.1-1.11-.15-1.66-.2-4.65.26-9.26,1.03-13.85.64-3.79,1.68-7.49,2.95-11.11,1.24-3.52,2.7-6.95,4.41-10.27,1.47-2.85,3.03-5.65,5.02-8.19.2-.26.32-.58.48-.87.24-.23.48-.47.54-.82,0,0,0-.02,0-.02.26-.09.36-.33.52-.52,2.54-3.03,5-6.13,8.03-8.73,4.33-3.71,8.84-7.12,14.27-9.11,5.07-1.86,10.24-2.84,15.65-1.82,1.15.22,1.66,1.29,1,2.26-1.61,2.38-3.15,4.81-4.27,7.48-2.43,4.2-4.28,8.66-5.96,13.2-.09.2-.19.39-.27.6-2.2,6.15-3.85,12.45-5.29,18.82-1.63,7.23-3.64,14.35-6.01,21.37-.89,2.65-1.72,5.33-2.94,7.84-1.19,2.43-2.3,4.9-3.49,7.34-.76,1.13-1.21,2.41-1.82,3.62-.51,1.01-1.02,2.01-1.53,3.01-1.15,2-2.31,4-3.46,6Z"/>
  <path class="cls-2" d="m134.9,135.49c.11-.22.21-.44.32-.66.14-.23.29-.46.43-.69.07-.11.14-.21.21-.32,1.79-2.88,3.45-5.83,5.03-8.82.35-.93,1.02-1.7,1.19-2.72.05-.33.51-.51.6-.89.66-.91.92-1.99,1.37-2.99,2.06-4.54,4.2-9.06,5.78-13.8,2.71-8.17,5.24-16.38,6.91-24.84,1-5.07,2.42-10.02,4.22-14.86.13-.36.26-.72.39-1.08.04-.08.08-.16.12-.24.02-.05.03-.11.05-.16.24-.36.39-.75.48-1.17.63-1.43,1.26-2.87,1.89-4.3.07-.12.16-.23.22-.35,2.04-4.35,4.32-8.56,7.13-12.47.37-.51.63-1.1,1.1-1.55.63-.6,1.3-.8,2.1-.35.74.42,1.49.84,2.23,1.26.87.68,1.76,1.34,2.6,2.06,2.89,2.48,4.94,5.57,6.55,8.98,1.71,3.63,2.74,7.44,3.35,11.39.29,1.88.33,3.78.54,5.66.29,2.55-.1,5.06-.08,7.58-.2,1.54-.39,3.08-.61,4.61-1.07,7.49-3.51,14.55-6.65,21.4-.8,1.73-1.87,3.31-2.65,5.05-.05.04-.06.08-.05.14-.05.07-.09.13-.14.2h-.01c-.73.36-1.14.99-1.5,1.67-.07.1-.13.21-.2.31-.42.42-.49,1.03-.84,1.49-.88,1.17-1.76,2.33-2.64,3.49-.18.09-.28.25-.35.44-.71.86-1.43,1.71-2.14,2.57-.05.06-.11.13-.16.19-1.05,1.35-2.4,2.42-3.59,3.64-2.41,2.46-5.15,4.52-8.02,6.41-2.29,1.5-4.74,2.72-7.23,3.87-.79.27-1.59.54-2.38.82,0,0-.06-.02-.06-.02l-.04.05c-1.39.37-2.76.78-4.18,1.02-.67.1-1.34.19-2,.29-.56,0-1.13-.03-1.68.12-1.33-.06-2.66-.03-3.98-.22-.39-.06-.78-.12-1.17-.18-.17-.01-.33-.02-.5-.04-.65-.21-1.33-.35-1.85-.83-.04-.08-.09-.17-.13-.25l.02-.05s-.04-.04-.04-.04c.02-.27.05-.54.07-.8Z"/>
  <path class="cls-1" d="m240.26,98.55c-.89,2.67-1.98,5.27-2.61,8.02-.26.87-.53,1.75-.79,2.62l-.62,2.34c-.1.23-.19.45-.29.68-.19.18-.21.44-.28.67-.11.32-.25.64-.23.99-.16.46-.35.91-.45,1.39-.04.18-.26.46-.04.58.3.17.4-.18.55-.36.23-.27.44-.56.66-.84.11-.12.21-.24.32-.36.62-.59,1.24-1.18,1.86-1.77.15-.1.3-.2.45-.3.62-.15,1.21-.38,1.73-.76,1.63-1.2,3.45-1.97,5.43-2.39.95-.1,1.88.14,2.82.2.31.45.86.64,1.19,1.1,1.22,1.72,2.04,3.56,1.77,5.74l-.06.04s.05.04.05.04l-.06.56c-.01.15-.02.29-.04.44-.44,4.83-2.79,8.82-5.67,12.54-1.18,1.53-2.61,2.85-4.06,4.14-.56.44-1.13.87-1.69,1.31-.41.23-.81.46-1.13.8-.21.13-.41.26-.62.39-.97.42-1.94.84-2.9,1.26-.7.13-1.4.26-2.1.39-.67,0-1.33,0-2-.01-.44-.13-.88-.26-1.32-.39-.08-.13-.21-.14-.34-.14-.17-.11-.33-.22-.5-.33-.21-.22-.42-.45-.63-.67-.17-.38-.35-.76-.52-1.15-.02-.11-.03-.22-.05-.33.06-.75-.35-1.42-.31-2.17.11-2.16.44-4.28.83-6.4.5-2.7,1.11-5.38,1.82-8.03.3-1.05.6-2.09.9-3.14.24-.53.4-1.09.48-1.66,1.6-3.86,2.72-7.88,4.23-11.77,1.66-3.88,3.32-7.75,4.98-11.63l1.87-4.01c1.55-3.08,3.03-6.2,4.76-9.19,3.79-6.55,7.82-12.92,13.41-18.15.76-.71,1.11-1.79,2.04-2.36.07-.06.15-.11.22-.17.26-.19.52-.37.78-.56.05-.04.1-.08.15-.12,2.76-1.91,5.72-3.43,9.01-4.21.94-.22,1.9-.32,2.86-.47,0,0,.07.02.07.02l.06-.03c1.16-.12,2.32-.15,3.48.08,2.41.48,3.59,2.21,4.36,4.33.1.28.2.57.29.85.04.58.07,1.17.11,1.75-.08,1,0,2.03-.6,2.93-.59-.01-.66-.5-.8-.9-.31-.9-.6-1.81-1.23-2.56-.1-.19-.22-.37-.42-.47-1.06-1.32-2.48-2.01-4.13-2.2-3.43-.4-6.67.22-9.79,1.72-1,.48-2.09.8-3.01,1.45-1.23.55-2.3,1.28-3,2.48-.16.27-.37.51-.6.74-1.15,1.18-2.45,2.22-3.39,3.6-.72.73-1.41,1.48-2,2.32-.31.28-.52.63-.73.98-.19.29-.38.57-.57.86-.3.27-.51.6-.66.97-.2.29-.39.58-.59.87-.08.12-.15.24-.23.36-.73.98-1.35,2.02-1.86,3.12l-.38.65c-.58.75-.96,1.61-1.4,2.44-2.79,5.25-5.09,10.72-7.19,16.28-.16.41-.31.83-.46,1.24-.07.22-.15.44-.22.66-.37.8-.65,1.63-.82,2.49-.17.17-.19.39-.2.61Zm-7.98,32.13c0,.22,0,.44,0,.66-.02,2.67,2.1,3.48,3.94,3.24,2.11-.28,3.99-1.23,5.54-2.77,2.05-2.03,3.67-4.28,4.74-7.01,1.11-2.85,1.74-5.7,1.28-8.74-.46-3.02-2-4.43-5.1-3.68-.4.1-.79.25-1.17.42-2.69,1.17-4.55,3.24-5.99,5.68-2.2,3.75-3.05,7.89-3.23,12.19Z"/>
  <path class="cls-1" d="m448.58,116.26c-.94.86-1.75,1.85-2.51,2.87-.54.73-.48,1.74-1.03,2.51-1.08,1.49-1.91,3.13-2.69,4.79-1.45,3.1-2.93,6.19-3.95,9.47-.43,1.38-2.47,2.4-3.93,2.04-.34-.08-.43-.3-.43-.6,0-.48.2-.91.36-1.35,2.69-7.28,5.35-14.57,7.37-22.07.58-2.14.15-2.5-2.05-2.02-1.49.33-2.09,1.52-2.91,2.55-.24.3-.35,1.04-.92.59-.43-.34-.23-.91.17-1.31,1.71-1.73,3.55-3.29,5.66-4.52.68-.11,1.36-.23,2.04-.31,1.08-.12,2,.66,1.99,1.7,0,2.94-.79,5.7-1.61,8.47-.05.18-.08.37-.12.56-.22.71-.44,1.42-.65,2.13.64-.41.88-1.01,1.17-1.58.51-.68.99-1.37,1.23-2.22.23-.81.87-1.4,1.43-2.01.69-.75,1.42-1.47,2.14-2.2.79-.8,1.55-1.51,2.77-1.82,1.11-.28,2.03-1.19,3.06-1.78,1.45-.84,3.06-1.11,4.64-1.37,1.82-.29,3.37,1.74,2.77,3.48-.3.89-.67,1.75-1.15,2.56-.37.64-.74,1.29-.95,2.01-.05.11-.1.22-.15.34-.05.11-.1.21-.15.32-.43.74-.78,1.51-1.06,2.32-.37.82-.74,1.63-.96,2.5-.16.2-.23.43-.27.68-.04.1-.08.21-.11.31-.1.37-.2.74-.3,1.11-.14.52-.27,1.05-.41,1.57-.03.17-.06.33-.09.5-.17.6-.39,1.19-.41,1.83-.26,1.31-.26,2.63-.19,3.95.05.84.29,1.61,1.1,2.11.89.54,1.66.12,2.4-.25,1.29-.65,2.22-1.73,3.15-2.79.22-.25.45-.49.69-.71.18-.16.41-.2.62-.06.23.14.2.39.14.6-.05.18-.13.37-.25.52-1.82,2.21-3.7,4.36-6.31,5.68-.97.49-2,.78-3.13.45-1.6-.46-2.44-1.47-2.59-3.14-.29-3.13.33-6.16,1.08-9.17.59-2.36,1.38-4.65,2.38-6.87.12-.27.15-.58.23-.87.4-.81.77-1.64,1.22-2.42.48-.85.64-1.73.6-2.69-.02-.47-.16-.58-.62-.6-2.42-.09-4.46.84-6.3,2.3-.32.14-.57.37-.8.62-.54.37-1.05.77-1.45,1.3Z"/>
  <path class="cls-1" d="m344.14,130.82c-.05.18-.06.41-.17.54-1.83,2.22-3.65,4.48-6.26,5.87-1.04.55-2.16.89-3.36.66-1.39-.27-2.15-1.18-2.48-2.49-.43-1.66-.26-3.32-.03-5,.75-5.48,2.63-10.59,4.95-15.57.22-.47.48-.94.5-1.48.05-.97-.27-1.29-1.27-1.28-2.82.03-5.01,1.39-6.92,3.31-.86.7-1.66,1.45-2.36,2.31-2.21,2.51-3.88,5.37-5.41,8.32-.72,1.39-1.38,2.82-1.9,4.31h0c-.11.08-.17.19-.15.33-.04.02-.06.06-.04.1-.31.54-.53,1.11-.68,1.71-.63,1.21-.99,2.54-1.53,3.79-.13.3-.29.58-.43.88-.17.1-.34.21-.51.31-.33.12-.66.24-.99.36-.05,0-.11.02-.16.02-.17.05-.34.09-.5.14-.28,0-.56.01-.83.02-.51-.06-.83-.3-.84-.85.44-1.22.89-2.44,1.33-3.65.23-.59.47-1.18.7-1.78.08-.17.18-.34.24-.52,1.51-4.49,3.19-8.93,4.51-13.49.44-1.51.89-3.01,1.2-4.55.11-.53.29-1.13-.48-1.37-.81-.26-2.81.44-3.34,1.14-.52.68-1.07,1.34-1.6,2.01-.12.15-.22.35-.46.23-.24-.12-.43-.31-.36-.59.07-.26.22-.5.35-.74.6-1.12,1.78-1.59,2.65-2.42,1.11-1.05,2.31-1.88,3.76-2.34.58.17,1.15-.1,1.74-.08,1.23.05,1.65.77,1.93,1.74-.03.3-.03.61-.09.9-.66,3.4-1.7,6.69-2.54,10.13,3.67-6.14,8.57-10.75,15.61-12.72.66.03,1.32-.04,1.99,0,1.69.11,2.72,1.51,2.15,3.11-.77,2.16-1.88,4.17-2.86,6.24-1.55,3.28-2.66,6.69-3.27,10.27-.04.21,0,.44.02.66-.27.91-.28,1.86-.18,2.77.22,2.02.96,3.18,3.34,2.18,1.3-.54,2.3-1.5,3.12-2.64.14-.16.34-.3.43-.49.35-.8.86-.78,1.48-.34Z"/>
  <path class="cls-1" d="m279.6,128.82c-.16-.73.11-1.43.23-2.13.95-5.62,3.85-10.12,8.03-13.9.56-.51,1.27-.65,1.92-.92.18-.06.39-.07.54-.18,1.35-1,2.87-1.64,4.46-2.13,1.26-.18,2.48-.51,3.77-.53,2.28-.03,4.43.34,6.38,1.57.28.22.57.16.84,0,.85-.51,1.77-.85,2.68-1.23.49,0,.99.01,1.48.02,0,.58-.41.95-.74,1.33-1.19,1.35-2.6,2.53-3.2,4.31-.87,1.21-1.35,2.6-1.87,3.98-.45.84-.74,1.75-.99,2.67-.2.3-.33.63-.36.99-.73,1.85-1.01,3.82-1.48,5.74-.43,1.73-.51,3.47-.17,5.22.17.9.57,1.21,1.49,1.21.85,0,1.44-.51,2.04-1,1.12-.92,1.96-2.09,2.91-3.17.3-.04.53.07.71.3-.05.64-.65.96-.88,1.5-.31.39-.49.88-.93,1.16-.22.11-.38.28-.49.5-.06.06-.12.11-.18.17-.05.05-.11.11-.16.16-.38.37-.76.74-1.14,1.11-.1.08-.19.16-.29.24-.04,0-.07,0-.07.05l-.58.41c-.36.23-.73.47-1.09.7l-2.34.97c-1.52.06-2.32-.45-2.8-1.89-.69-2.08-.42-4.21-.28-6.33.02-.33.08-.66.11-.99.15-.16.14-.36.12-.56.01-.11.02-.22.03-.33.3-.55.07-1.18.3-1.79-.67.27-.59.91-.87,1.33-.19.18-.36.38-.44.64-.03.05-.07.09-.1.14-1.54,1.76-2.84,3.73-4.56,5.34-.04.04-.03.15-.04.23-.64.15-.94.72-1.39,1.11-.04,0-.06.01-.06.05-1.15,1.01-2.44,1.82-3.82,2.46-1.63.76-3.18.71-4.56-.53-.87-.78-1.34-1.81-1.65-2.92-.45-1.66-.55-3.36-.52-5.07Zm4.51-1.17c-.03.87.06,1.72.18,2.57.15,1.06.51,2.03,1.24,2.84.91,1,1.77,1.16,2.97.56.77-.39,1.44-.92,2.1-1.47,2.81-2.34,4.82-5.34,6.77-8.35,1.95-3.01,3.7-6.15,5.15-9.44.57-1.29.3-1.87-1.03-2.32-.37-.12-.74-.24-1.08-.42-1.63-.82-3.35-.84-5.11-.64-1.21.14-2.24.87-3.41,1.02-.92.11-1.52.54-2.11,1.16-3.89,4.06-5.55,8.98-5.67,14.5Z"/>
  <path class="cls-1" d="m468.21,130.82c0-3.54.75-6.92,2.12-10.17.08-.2.13-.42.2-.62,1.18-2.37,2.39-4.72,4.13-6.75.66-.77,1.46-1.27,2.33-1.73.19-.1.38-.23.54-.37,1.98-1.78,4.35-2.3,6.93-2.13,1.47.09,4.22,2.34,4.21,4.24,0,.98-.35,1.93-.97,2.74-1.58,1.62-3.43,2.82-5.54,3.65-.1.04-.21.08-.31.12-.31.08-.61.17-.86.38-.56.13-1.11.28-1.62.55-.62.2-1.23.39-1.85.59-.11.03-.21.06-.32.09-1.03.28-2.08.49-3.06.93-.56.17-1.37.03-1.29,1.02-.25.55-.11,1.15-.2,1.71l-.04.04.04.04c-.09,1.01-.14,2.02.03,3.03-.08,2.17.56,4.09,2.14,5.61,1.08,1.04,2.47,1.18,3.89.96,2.66-.42,4.8-1.74,6.52-3.78.11-.13.22-.24.35-.35.15-.13.31-.25.52-.14.22.11.19.3.17.5-.04.37-.16.71-.4.98-2.2,2.44-4.56,4.69-7.87,5.58-2.59.7-5.07.6-7.35-1-.93-.65-1.42-1.59-1.85-2.59-.19-.82-.37-1.64-.56-2.46-.02-.22-.04-.44-.05-.66Zm11.02-18.76c-.99-.14-1.87.27-2.58,1.04-.79.85-1.45,1.8-1.94,2.87-.64,1.39-.9,2.89-1.46,4.3-.14.35,0,.41.33.43.98.05,1.93-.13,2.88-.35,2.17-.5,4.27-1.21,6.06-2.58,1.56-1.2,1.98-2.75,1.31-4.58-.24-.65-.68-1-1.37-1.18-1.06-.28-2.08.08-3.22.05Z"/>
  <path class="cls-1" d="m420.57,134.78c.89-.05,1.7-.38,2.54-.6,2.15-.56,3.55-2.02,5.06-3.4.24-.22.5-.45.79-.23.26.19.05.5-.06.72-.75,1.5-2.02,2.54-3.27,3.59-1.98,1.66-4.26,2.72-6.83,3.07-1.33.18-2.63-.05-3.87-.59-.4-.17-.8-.37-1.2-.55-2.06-1.57-2.75-3.76-2.83-6.22-.12-3.45.86-6.68,2.09-9.84.94-2.21,1.98-4.38,3.42-6.33,0,0,0,0,0,0,.69-.59,1.01-1.58,1.84-1.97,1.25-.58,2.2-1.55,3.33-2.28.77-.32,1.54-.63,2.31-.95.33-.06.67-.12,1-.18.33.02.67.09.99.04,2.2-.32,3.59.92,4.8,2.48.31.4.69.79.73,1.35.19.79-.11,1.47-.44,2.15-.1.21-.19.44-.28.65,0,0,0,0,0,0-1.93,2.37-4.58,3.58-7.38,4.56-2.25.78-4.51,1.51-6.82,2.11-.61.16-.94.42-1,1.1-.1,1.13-.27,2.25-.19,3.39-.07,1.39.05,2.76.43,4.09.72,2.5,2.55,3.94,4.82,3.85Zm-3.77-14.08c.45.05.93-.09,1.42-.18,2.38-.44,4.7-1.05,6.71-2.49,1.81-1.31,2.3-3.1,1.44-5.1-.22-.51-.56-.76-1.11-.87-1.14-.24-2.26-.04-3.39-.04-1.34,0-2.23.61-3.02,1.59-1.49,1.86-2.21,4.04-2.81,6.3-.2.74-.06.99.75.8Z"/>
  <path class="cls-1" d="m256.14,131.65c-.25-4.8,1.15-9.22,3.15-13.49.37-.78.81-1.51,1.31-2.21.55-.76,1.11-1.51,1.36-2.45.18-.67.64-1.12,1.32-1.38,1.35-.53,2.26-1.78,3.6-2.34.77-.28,1.55-.81,2.32-.79,1.5.03,3.13-.27,4.43.87.5.44,1.01.87,1.41,1.4,1.2,1.6,1.17,3.16-.11,4.74-.17.21-.34.43-.51.65-.26.13-.48.31-.65.55h0c-.07.05-.13.1-.2.16-.49.34-.98.67-1.47,1.01-.44.22-.88.44-1.33.66-1.95.96-4.02,1.57-6.05,2.3-.32.1-.64.19-.96.29-.81.09-1.54.4-2.29.7-.51.2-.79.58-.85,1.13-.37,3.49-.3,6.93,1.28,10.19.23.47.6.7,1.05.86,1.33.45,2.66.41,4,.04,2.14-.59,3.9-1.79,5.41-3.39.3-.32.6-.79,1.17-.45,0,0,0,0,0,0,.11.51,0,.91-.47,1.23-.46.33-.74.83-.99,1.34-1.11.67-1.97,1.64-2.99,2.41-.13.09-.26.17-.39.26-.26.16-.53.33-.79.49-1.15.63-2.4.99-3.66,1.34-.17.02-.33.04-.5.05-.65.06-1.3.25-1.95.08-2.97-.76-5.02-2.44-5.58-5.6-.04-.22-.08-.44-.12-.66Zm12.14-19.73c-.87.04-1.87.09-2.86.15-.19.01-.41.06-.54.18-1.34,1.18-2.65,2.41-3.04,4.23-.26,1.2-.24,2.46-.68,3.63-.17.45.02.68.53.58.92-.18,1.86-.29,2.77-.53,2.12-.55,4.22-1.18,5.81-2.84,1.33-1.39,1.21-3.01.52-4.62-.16-.37-.47-.61-.89-.66-.49-.06-.98-.19-1.61-.12Z"/>
  <path class="cls-1" d="m373.61,124.28c-1.01-1.58-2.02-3.16-2.95-4.8-1.2-2.11-1.38-4.28-.64-6.56.12-.38.32-.69.67-.91.28-.17.55-.38.78-.62,2.17-2.29,4.9-2.73,7.86-2.39.08,0,.17,0,.25,0l.08.03s.08-.01.08-.01c.11.01.21.02.32.04.05.02.1.03.15.05l1,.29c.06.04.13.07.19.11.2.08.39.16.59.24.25.17.51.31.75.5.39.32.81.71.67,1.24-.43,1.66-.75,3.38-1.78,4.82-.6.19-.8-.06-.72-.65.03-.22.09-.41.17-.62,1.21-3.09-1.05-5-3.83-4.63-.91.12-1.75.49-2.49,1.06-1.24.95-1.44,2.18-1.22,3.66.39,2.63,2.14,4.5,3.48,6.6.57.89,1.16,1.75,1.63,2.69,1.72,3.5,1.73,6.92-.67,10.13-1.28,1.72-3.12,2.63-5.19,3.03-2.77.54-5.53.48-8.24-.47-.88-.31-1.62-.82-2.34-1.39-.93-.73-1.19-1.62-.79-2.72.74-2.08,1.97-3.82,3.64-5.26.2-.18.45-.19.69-.25.15.14.38.21.41.45-.37.58-.74,1.17-1.12,1.74-1.4,2.09-.3,5.79,2.72,6.54,2.13.53,4.07.35,5.88-.76,1.53-.93,2.3-2.44,2.45-4.21.16-1.94-.43-3.71-1.43-5.36-.2-.33-.4-.66-.6-.99-.1-.26-.2-.51-.43-.68Z"/>
  <path class="cls-1" d="m391.88,131.41c.5,2.5,2.43,3.3,4.73,3,.22-.03.43-.09.64-.14.09-.03.19-.07.28-.1,1.31-.28,2.49-.79,3.39-1.82.17,0,.32-.01.46-.12,1.2-.94,2.31-1.96,3.2-3.21.43-.03.8.06,1.01.48-.07.22-.14.43-.22.65-.35.69-1.05,1.08-1.46,1.71-.47.37-.9.79-1.26,1.26-.4.31-.84.58-1.08,1.05-.06.05-.11.1-.17.14-.17.15-.35.3-.52.45-.15.13-.31.26-.46.38-.18.13-.36.27-.55.4-2.43,1.75-5.06,2.84-8.14,2.38-.13-.14-.3-.14-.48-.14-.45-.21-.9-.42-1.36-.63-1.89-1.51-2.67-3.47-2.67-5.87,0-6.55,2.17-12.31,6.2-17.42.65-.83,1.42-1.53,2.43-1.95.89-.38,1.59-1.09,2.4-1.62.22-.12.44-.23.66-.35,1.49-.64,3.02-1.03,4.65-.91.05,0,.11,0,.16,0,1.4.3,2.68.82,3.54,2.04.5.7.76,1.44.45,2.3-.11.08-.16.19-.15.33-.53,1-1.14,1.95-1.84,2.84-.1.13-.22.25-.34.37-.36.34-.8.77-1.27.53-.57-.29-.12-.85-.03-1.26.25-1.13.27-2.22-.24-3.28-.21-.44-.52-.79-1.05-.84-1.73-.16-3.46-.17-5.18.13-.2.04-.39.18-.59.28-.4.17-.69.47-.95.79-2.17,2.59-3.31,5.63-3.85,8.93-.21.35-.18.76-.25,1.14-.02.12-.04.24-.06.35-.05.33-.11.66-.16,1-.38,1.54-.17,3.11-.22,4.66-.02.71-.02,1.42.31,2.08Z"/>
</svg>