<?xml version="1.0" encoding="UTF-8"?>
<svg id="Layer_2" data-name="Layer 2" xmlns="http://www.w3.org/2000/svg" viewBox="0 0 500 240">
  <defs>
    <style>
      .cls-1 {
        fill: #306671;
      }

      .cls-2 {
        fill: #17353b;
      }

      .cls-3 {
        fill: #083943;
      }
    </style>
  </defs>
  <path class="cls-3" d="m60.75,115.28c-.05-.19-.14-.38-.13-.57.12-1.64.24-3.28.41-4.91.14-1.33.28-2.66.55-3.96.4-1.9.86-3.8,1.4-5.67.43-1.49.92-2.98,1.55-4.4.69-1.58,1.57-3.08,2.36-4.61.07-.13.1-.28.15-.42.1-.12.2-.23.29-.35.99-1.38,1.96-2.79,2.99-4.14.53-.69,1.17-1.29,1.77-1.94.27-.23.54-.46.8-.69.14-.13.28-.26.42-.39.32-.27.64-.54.95-.81.47-.31.92-.65,1.41-.94.73-.42,1.45-.88,2.23-1.18.85-.33,1.28,0,1.4.89.09.64.16,1.28.27,1.91.41,2.28.7,4.59,1.27,6.83,1.28,5.02,2.67,10.01,4.58,14.83,2.02,5.1,4.06,10.18,6.96,14.89,1.69,2.75,3.19,5.63,4.58,8.54,2.44,5.14,4.87,10.3,7.03,15.56,1.81,4.4,3.28,8.94,4.85,13.44.58,1.65,1.02,3.34,1.52,5.01.29,1.21.57,2.41.86,3.62,0,.05,0,.09,0,.14.04.09.08.18.13.27.07.32.14.65.21.97.02.13.05.26.07.39.09.41.18.82.27,1.22.05.27.09.54.14.82.09.41.18.82.27,1.22.09.5.18,1,.27,1.49.04.18.08.36.12.54.05.32.1.63.14.95.07.5.14,1.01.21,1.51.02.13.05.26.07.39.07.53.13,1.06.2,1.59.15,1.17.06,1.88-1.37,2.3-2.31.69-4.66.62-7.02.55-3.63-.11-7.04-1.12-10.27-2.75-1.49-.75-3.02-1.45-4.44-2.31-1.45-.88-2.83-1.89-4.15-2.95-1.58-1.27-3.15-2.58-4.58-4.02-2.26-2.28-4.44-4.64-6.27-7.3-.81-1.18-1.78-2.26-2.6-3.44-.51-.74-.87-1.58-1.3-2.38-.8-1.49-1.67-2.95-2.38-4.49-1.14-2.46-2.2-4.95-3.25-7.45-1.3-3.1-2.17-6.34-3.01-9.58-.31-1.2-.6-2.4-.83-3.62-.31-1.67-.61-3.35-.82-5.03-.17-1.46-.21-2.93-.29-4.39-.03-.52,0-1.03,0-1.55,0-.05-.01-.1-.02-.15,0-.93,0-1.86-.01-2.79,0-.07,0-.14,0-.2,0-.12,0-.24,0-.37,0-.05.01-.09.02-.14Z"/>
  <path class="cls-1" d="m135.22,157.39c-.25.72-.5,1.44-.75,2.15-.04.09-.08.19-.12.28-1.05,2.67-2.37,5.21-3.97,7.59-1.37,2.04-3,3.88-4.82,5.56-1.65,1.52-3.61,2.56-5.52,3.67-.18.02-.35.04-.53.06-.85-.09-.98-.26-1.08-1.12-.1-.82-.27-1.63-.4-2.44-.19-1.04-.38-2.08-.57-3.12-.35-1.59-.71-3.18-1.06-4.76-.32-1.36-.64-2.72-.96-4.07-.14-.62-.3-1.23-.41-1.85-.19-1.09-.21-2.22-.53-3.27-1.03-3.37-2.07-6.74-3.27-10.04-2.1-5.8-4.56-11.46-7.22-17.02-1.77-3.7-3.36-7.5-5.78-10.87-.85-1.19-1.48-2.54-2.14-3.85-1.52-3-3.09-5.99-4.23-9.17-.92-2.58-1.91-5.13-2.73-7.74-.78-2.48-1.42-5-2.03-7.53-.37-1.51-.57-3.07-.83-4.6-.2-1.21-.4-2.43-.56-3.65-.16-1.13-.27-2.28-.41-3.41.53-1.21,1.72-1.21,2.73-1.31,2.09-.21,4.22-.43,6.3-.28,3.9.29,7.62,1.35,11.12,3.18,2.13,1.12,4.22,2.28,6.15,3.7.94.69,1.91,1.35,2.8,2.1.3.25.35.77.62,1.07.42.47.94.85,1.39,1.29,4.31,4.25,7.99,8.99,10.99,14.25,2.49,4.37,4.61,8.92,6.21,13.69.83,2.47,1.51,5,2.26,7.5.03.1.09.2.14.3.26,1.36.52,2.73.78,4.09.27,2.32.65,4.63.8,6.96.17,2.7.13,5.42.18,8.13,0,.36-.06.71-.1,1.07l-.27,2.85c-.13,1.13-.2,2.27-.41,3.38-.29,1.59-.68,3.17-1.03,4.75-.25.82-.5,1.64-.75,2.46Z"/>
  <path class="cls-3" d="m171.61,60.66c1.17-.36,2.33-.73,3.51-1.08,1.91-.56,3.87-.62,5.83-.57.47.01.95-.01,1.43-.02.42.05.84.11,1.26.16,1.82.23,2.37.91,1.28,2.6-1.31,2.02-2.5,4.13-3.62,6.25-2.17,4.1-3.82,8.41-5.33,12.78-1.56,4.53-2.66,9.17-3.73,13.83-.89,3.89-1.94,7.75-3.09,11.57-1.37,4.55-2.8,9.09-5,13.35-1.13,2.18-2.07,4.46-3.09,6.7-.27.54-.55,1.09-.82,1.63l-.9,1.65c-.41.72-.83,1.44-1.24,2.17-.04.08-.09.16-.13.23-.68,1.1-1.35,2.21-2.03,3.31-.11.19-.27.34-.41.51-.77.73-1.51,1.02-2.54.28-.57-.41-1.15-.79-1.72-1.19-1.72-1.21-3.21-2.65-4.43-4.37-1.71-2.41-2.98-5.04-3.92-7.84-.82-2.41-1.37-4.88-1.67-7.4-.14-1.18-.11-2.37-.15-3.56-.02-.66-.02-1.31-.03-1.97.01-.27.03-.54.04-.81.04-.09.11-.19.12-.28.1-1.5.1-3.01.3-4.5.24-1.84.51-3.69.99-5.47.76-2.81,1.71-5.57,2.58-8.36.04-.14.07-.28.11-.42.13-.32.25-.64.38-.96.05-.13.1-.26.16-.39.33-.63.67-1.25.98-1.89.73-1.47,1.33-3.01,2.18-4.39,1.58-2.57,3.22-5.11,4.99-7.55,2.11-2.9,4.64-5.45,7.38-7.76.99-.83,2.01-1.63,3.01-2.45l.94-.58c1.02-.58,2.02-1.2,3.06-1.73,1.09-.55,2.23-1.01,3.35-1.51Z"/>
  <path class="cls-1" d="m196.97,64.71c.13.1.27.21.4.31.09.09.18.18.28.27.18.18.36.36.55.54.09.09.18.18.27.28.35.41.69.81,1.04,1.22,1.02,1.63,2.03,3.27,3.05,4.9.56,1.55,1.22,3.08,1.65,4.67.52,1.94.92,3.92,1.21,5.9.26,1.82.46,3.68.4,5.51-.12,4.28-.48,8.55-1.56,12.73-1.3,5.04-3.07,9.89-5.52,14.49-.6,1.12-1.25,2.22-1.97,3.27-1.11,1.59-2.29,3.13-3.45,4.69-1.86,2.51-3.92,4.84-6.22,6.96-.51.47-1.05.9-1.58,1.35-.53.4-1.06.81-1.59,1.21-.56.41-1.13.82-1.69,1.22-.1.05-.2.09-.3.15-2.41,1.65-5.01,2.95-7.77,3.9-1.24.43-2.52.77-3.78,1.14-.5.05-1,.1-1.49.14-.44.05-.89.16-1.33.13-1.78-.11-3.57-.22-5.34-.42-1.35-.15-1.72-1.04-.99-2.19.21-.34.5-.63.69-.98,1.4-2.48,2.87-4.92,4.15-7.46,1.74-3.45,3.45-6.92,4.93-10.48,1.33-3.18,2.41-6.48,3.47-9.77,1.75-5.44,3.24-10.96,4.36-16.57,1.15-5.79,3.11-11.32,5.41-16.73,1-2.36,2.3-4.6,3.56-6.84,1.05-1.87,2.23-3.68,3.37-5.5.46-.74,1.09-.93,1.92-.63.25.09.5.2.75.3.14.08.28.17.42.25.27.18.54.36.82.54.55.41,1.09.82,1.64,1.22.09.08.19.16.28.24Z"/>
  <g>
    <path class="cls-2" d="m282.15,75.87c.07.25.33.45.51.67.17-.24.44-.46.48-.72.25-1.54.36-3.08-.4-4.54-.7-1.34-1.6-2.54-3.19-2.71-1.35-.15-2.73-.06-4.09.05-1.8.15-3.45.87-5.11,1.54-1.05.59-2.1,1.18-3.14,1.77-.27.18-.55.36-.82.54-.85.63-1.55,1.38-2.1,2.29-.21.35-.66.56-1.01.84-.55.59-1.11,1.18-1.66,1.78-.46.61-.91,1.23-1.37,1.84-1.18,1.59-2.44,3.12-3.51,4.78-1.59,2.48-3.07,5.03-4.53,7.59-.9,1.58-1.72,3.21-2.52,4.84-1.08,2.2-2.13,4.41-3.16,6.63-.46.99-.86,2-1.29,3-.17.4-.33.8-.5,1.19-.44,1.18-.88,2.36-1.31,3.54-1.08,2.92-2.17,5.84-3.25,8.76-.02.06-.07.11-.09.18-.46,1.68-.96,3.35-1.38,5.04-.4,1.64-.76,3.29-1.05,4.96-.29,1.64-.54,3.3-.71,4.96-.07.72.13,1.46.15,2.2.03,1.13.61,1.9,1.56,2.4,1.66.89,3.35.61,5-.01,2.37-.89,4.34-2.38,6.08-4.2.97-1.08,2.01-2.12,2.9-3.26.65-.83,1.11-1.81,1.65-2.72.61-1.36,1.22-2.71,1.83-4.07.11-.68.22-1.35.33-2.03.04-.57.07-1.14.12-1.71.07-.89-.11-1.72-.53-2.5-.09-.18-.18-.36-.27-.54-1.06-2.27-1.84-2.27-4.42-2.13-.68.04-1.35.4-2.02.61-.22.1-.44.2-.67.3h-.01c-.27.18-.54.37-.81.55-.91.58-1.82,1.17-2.73,1.75-.59.63-1.19,1.27-1.78,1.9-.19.24-.37.49-.56.73-.04-.02-.08-.04-.13-.06l.19-.68c.29-.86.57-1.73.86-2.59.12-.42.23-.84.35-1.26.18-.62.36-1.23.55-1.85.05-.14.09-.27.14-.41.17-.52.33-1.03.5-1.55.02-.16.01-.32.06-.47.66-2.05,1.31-4.1,2.01-6.14,1.44-4.21,2.97-8.38,4.88-12.4,1.22-2.57,2.57-5.09,3.92-7.6,1.77-3.27,3.99-6.23,6.61-8.88.62-.63,1.23-1.27,1.85-1.89.5-.5.94-1.1,1.53-1.48,2.04-1.33,4.25-2.35,6.66-2.78,1.38-.25,2.81-.26,4.23-.27.63,0,1.31.16,1.9.41,1.7.72,2.77,2.01,3.29,3.78Zm-37.14,45.58c1.01-1.03,2.09-2.01,3.55-2.27.97-.17,1.99-.11,2.98-.05.3.02.73.29.85.56.36.81.8,1.67.84,2.52.07,1.47-.15,2.95-.24,4.43-.02.06-.04.11-.06.17-.03.15-.07.3-.1.46-.03.08-.05.15-.08.23-.02.07-.03.14-.05.22-.64,1.85-1.45,3.62-2.69,5.17-.39.49-.82.95-1.24,1.42-1.06.73-2.06,1.54-3.18,2.15-.9.49-1.9.64-2.99.46-1.43-.25-1.99-1.41-2-2.52-.04-2.77.45-5.45,1.45-8.04.7-1.81,1.57-3.51,2.95-4.91Z"/>
    <path class="cls-2" d="m303.47,116.2c-.32.04-.64.09-.95.13l-1.79.97s-.08.06-.12.08c-.25-.05-.51-.05-.73-.15-.54-.23-1.06-.51-1.59-.76-.09-.04-.18-.08-.27-.12-.32-.05-.64-.1-.95-.16-.29-.04-.57-.12-.86-.11-1.39.08-2.77.18-4.15.28-.28.09-.56.17-.84.26l-2.59,1.09c-.75.59-1.47,1.23-2.44,1.45-.26.06-.53.23-.73.41-1.67,1.55-2.99,3.38-4.18,5.31-.27.44-.46.93-.68,1.39-.05.19-.07.39-.14.58-.69,1.79-1.18,3.64-1.22,5.56-.02,1.07.15,2.15.23,3.23.09.24.17.48.26.72,0,.05,0,.1,0,.15.34.65.65,1.32,1.04,1.94.19.3.54.5.82.74.03,0,.05.03.06.06.19.11.39.22.58.33,2.11.4,3.63-.82,5.22-1.88.11-.07.22-.14.34-.21.78-.8,1.57-1.59,2.35-2.39,1-1.27,2.01-2.53,3.01-3.8.27-.48.54-.96.8-1.44.06.01.12.03.18.04-.1.51-.2,1.03-.3,1.54-.44,1.64-.54,3.31-.42,4.99.05.73.19,1.48.46,2.15.4,1.02,1.27,1.34,2.38,1.04.13-.03.26-.06.4-.08.28-.08.55-.16.83-.24.86-.66,1.78-1.25,2.57-1.99.82-.76,1.51-1.65,2.27-2.47.27-.3.69-.52.33-1.11-.22.04-.47.1-.72.15-.03.04-.06.08-.1.12-.1.14-.2.29-.3.43-.35.42-.71.85-1.06,1.27-.26.22-.53.44-.78.67-.6.53-1.27.94-2.09.75-.62-.14-.65-.79-.79-1.3-.04-.15-.04-.32-.02-.47.18-1.51.29-3.03.56-4.52.61-3.33,1.81-6.46,3.33-9.48.34-.68.56-1.58,1.12-1.94.69-.43,1.01-1.05,1.45-1.61.35-.44.59-.97.88-1.45-.08-.05-.17-.1-.25-.15h-.41Zm-5.44,4.22c-2.07,4.52-4.52,8.82-7.78,12.6-.94,1.09-2.07,2.04-3.22,2.9-1.34,1.01-2.53.66-3.26-.86-.56-1.17-.8-2.43-.77-3.74.24-4.11,1.27-7.93,3.96-11.2.86-1.04,2.09-1.34,3.19-1.84,2.55-1.16,5.05-.95,7.41.65.84.57.89.56.47,1.49Z"/>
    <path class="cls-2" d="m398.3,116.01c-1.35.18-2.53.74-3.68,1.42-.76.59-1.52,1.19-2.28,1.78-.1.08-.24.12-.31.22-2.2,2.88-3.88,6.02-4.71,9.58-.42,1.81-.78,3.61-.48,5.47.21,1.3.37,2.63,1.4,3.62,1.48,1.42,3.28,1.84,5.26,1.56,1.94-.27,3.69-1.02,5.17-2.32l2.81-2.92c.04-.24.09-.47.13-.7-.46-.23-.4-.26-1.19.51-1.43,1.38-2.97,2.58-5.03,2.85-1.83.24-3.21-.13-4.15-2.03-.65-1.3-.88-2.68-.9-4.1-.02-.99.07-1.98.13-2.96.03-.52.25-.85.84-1.02,2.06-.6,4.09-1.28,6.13-1.94,1.92-.62,3.75-1.4,5.09-2.99.68-.81,1.35-1.78.97-2.8-.89-2.43-2.44-3.61-5.2-3.23Zm.23,7.12c-1.65,1.4-3.66,1.93-5.72,2.32-.46.09-.92.2-1.38.26-.26.04-.62.04-.51-.37.54-1.96,1.04-3.95,2.41-5.53.3-.34.78-.59,1.22-.72.9-.25,1.83-.49,2.76-.54,1.52-.09,2.27.72,2.27,2.34.18.91-.34,1.61-1.07,2.23Z"/>
    <path class="cls-2" d="m437.84,127.11c2.49-.87,5.01-1.64,7.5-2.49,1.53-.51,2.89-1.33,3.99-2.52.69-.75,1.37-1.65,1.06-2.7-.67-2.3-2.57-3.78-5.3-3.43-2.57.33-4.33,2.03-6.11,3.56-1.14.98-1.92,2.44-2.63,3.81-.77,1.48-1.35,3.08-1.84,4.67-.44,1.42-.74,2.89-.94,4.36-.16,1.2.07,2.41.38,3.61.35,1.34,1.12,2.35,2.25,2.97,2.1,1.15,4.39,1.01,6.52.16,1.95-.78,3.59-2.13,4.93-3.77.39-.48.93-.93.83-1.91-.43.27-.79.42-1.03.67-1.5,1.57-3.25,2.69-5.44,3.01-.32,0-.64,0-.96,0-.14,0-.27,0-.41,0-1.63-.41-2.48-1.54-2.9-3.09-.12-.33-.35-.65-.35-.98-.04-1.68-.04-3.36,0-5.04,0-.31.22-.82.45-.9Zm-.03-1.84c.51-1.44,1.07-2.86,1.62-4.28.03-.08.1-.15.14-.23.92-1.99,3.73-2.4,5.28-2.21,1.14.14,1.66.91,1.66,2.29.16,1.07-.46,1.84-1.28,2.46-1.67,1.26-3.61,1.84-5.64,2.17-.41.07-.82.19-1.23.25-.32.05-.68-.03-.54-.44Z"/>
    <path class="cls-2" d="m363.6,116.94c-.48-.14-.92-.45-1.37-.68-.68-.07-1.35-.13-2.03-.2h-1.77c-.86.24-1.72.48-2.58.72-.65.62-1.26,1.29-1.94,1.86-1.29,1.08-1,2.5-.83,3.84.23,1.75,1.25,3.18,2.19,4.62,1.02,1.56,2.22,3.05,2.69,4.89.39,1.52.35,3.02-.51,4.46-1.09,1.83-4.16,2.39-5.95,1.98-2.41-.56-3.48-3.64-2.24-5.52.22-.34.48-.66.66-1.01.09-.18.03-.44.04-.66-.22.03-.46.01-.66.09-.18.07-.35.22-.47.37-.57.68-1.12,1.36-1.68,2.05-.23.48-.43.97-.7,1.42-.97,1.67-.27,2.19.88,3.11,1.02.8,2.28,1.13,3.58,1.3,1.9.24,3.78.2,5.61-.42.51-.17.99-.39,1.49-.59.54-.4,1.08-.8,1.62-1.21.13-.17.26-.34.39-.52.23-.37.47-.74.7-1.11.09-.22.18-.43.28-.65.1-.31.21-.63.31-.94-.04-1.2-.07-2.39-.11-3.59-.12-.35-.25-.69-.37-1.04-.36-.68-.73-1.36-1.09-2.04-.21-.29-.44-.56-.62-.87-.9-1.51-1.92-2.96-2.62-4.55-.54-1.23-.56-2.62.55-3.73.94-1.09,3.1-1.47,4.33-.75.55.33.88.84.99,1.47v3.09c.24-.16.58-.26.66-.47.46-1.13.87-2.29,1.29-3.44-.04-.54.05-1.11-.71-1.32Z"/>
    <path class="cls-2" d="m382.42,116.47c-.18-.09-.36-.17-.55-.26l-1.09-.15c-1.26-.04-2.49.13-3.68.58-.17.09-.34.17-.49.27-1.22.8-2.43,1.6-3.64,2.41-.23.16-.47.35-.63.57-.99,1.38-1.89,2.81-2.6,4.36-.69,1.51-1.39,3-1.75,4.63-.19.85-.39,1.7-.59,2.54,0,.18.02.36.03.54,0,1.22-.07,2.44.05,3.65.12,1.26.76,2.34,1.73,3.16,1.38,1.17,2.94,1.25,4.66.86,1.9-.44,3.38-1.53,4.87-2.67.32-.31.64-.63.96-.94.92-1.11,2.21-1.93,2.75-3.36-.39-.38-.69-.38-1.06,0-.73.73-1.46,1.47-2.26,2.1-1.19.94-2.45,1.77-4,2.02-2.11.34-3.69-.35-3.97-2.76-.18-1.54-.2-3.15,0-4.69.28-2.04.68-4.11,1.38-6.04.66-1.83,1.23-3.91,3.68-4.42,1.3-.27,2.53-.58,3.8.02,1.14.54,1.36.76,1.31,2.18-.01.36-.18.72-.25,1.08-.04.24-.02.48-.03.72.31-.06.75,0,.9-.19.8-.98,1.6-1.99,2.24-3.08.24-.41.27-1.22.01-1.6-.43-.63-1.17-1.05-1.77-1.56Z"/>
    <path class="cls-2" d="m330.69,134.33c-.77,1.18-1.86,1.92-3.09,2.51-.81.39-1.58.16-1.93-.61-.2-.45-.37-.96-.36-1.45.02-1.07.08-2.16.27-3.21.49-2.72,1.32-5.33,2.53-7.82.77-1.58,1.55-3.15,2.3-4.74.51-1.09.23-2.73-1.43-2.9-.83-.08-1.72-.08-2.53.09-1.69.36-3.13,1.29-4.55,2.24-.7.47-1.56.73-2.17,1.28-.81.72-1.44,1.63-2.15,2.46-.19.19-.39.39-.58.58-.83,1.21-1.66,2.42-2.5,3.62-.07.1-.25.12-.39.17.46-1.41.92-2.81,1.38-4.22.28-1.26.59-2.52.83-3.79.09-.49,0-1.01,0-1.51-.06-.17-.12-.34-.18-.51-.09-.1-.17-.2-.26-.29-.32-.1-.63-.21-.95-.31-.86.15-1.72.3-2.59.45-1.11.64-2.09,1.41-2.84,2.46-.06.09-.16.2-.25.21-.82.06-1.04.75-1.36,1.3-.09.16.05.45.08.68.19-.09.46-.13.56-.28.7-1.08,1.7-1.8,2.85-2.28.38-.16.94-.15,1.29.03.19.1.2.73.13,1.1-.15.8-.38,1.59-.61,2.37-.48,1.66-.97,3.33-1.49,4.98-.24.77-.54,1.52-.81,2.29-.63,1.79-1.25,3.58-1.88,5.36-.48,1.35-1,2.7-1.49,4.05-.29.81-.09,1.12.74,1.07.59-.04,1.18-.19,1.77-.29l.54-.27c.09-.1.18-.2.27-.3.03-.08.07-.16.1-.24.48-1.31.96-2.61,1.44-3.92.31-.75.61-1.51.95-2.26.67-1.47,1.36-2.93,2.04-4.39,1.28-1.81,2.55-3.63,3.83-5.44.6-.54,1.17-1.14,1.81-1.62.96-.72,1.81-1.72,3.07-1.88,1.07-.14,2.18-.03,3.42-.03-.15.65-.19,1.14-.37,1.58-.85,2.11-1.77,4.2-2.61,6.32-.81,2.04-1.33,4.18-1.5,6.36-.11,1.41-.21,2.88.04,4.26.29,1.63,1.73,2.51,3.47,2.01.13-.01.27-.02.4-.04,2.18-.77,3.54-2.57,5.13-4.08.35-.53.71-1.07,1.07-1.6-.68-.37-.98-.31-1.47.44Z"/>
    <path class="cls-2" d="m427.19,136.32c-.6.49-1.31.91-2.17.54-.86-.37-1.01-1.11-1.03-1.95-.06-2.61.33-5.15,1.32-7.55,1.15-2.8,2.44-5.54,3.73-8.28.88-1.87-.41-3.09-2.01-3.13-1.76-.05-3.35.5-4.82,1.43-.92.58-1.81,1.24-2.79,1.67-1.12.49-1.79,1.37-2.48,2.28-.18.16-.36.31-.54.47-.65,1.12-1.3,2.25-1.96,3.37-.41.64-.81,1.29-1.22,1.93.14.27.27.53.41.8.13-.18.26-.37.38-.55.14-.23.28-.46.43-.68.18-.28.36-.55.54-.83.24-.58.48-1.16.72-1.74.63-.76,1.26-1.53,1.9-2.29.26-.16.51-.31.77-.47h.01c.45-.37.89-.73,1.34-1.08l.02-.02c.52-.71,1.28-1.05,2.09-1.14.87-.1,1.77-.02,2.65-.04.6-.02.74.3.57.77-.31.83-.68,1.63-1.02,2.45-.37.88-.73,1.76-1.11,2.63-.07.16-.22.29-.33.43,0,0,0,0,0,0-.12.52-.21,1.05-.38,1.56-.71,2.09-1.33,4.2-1.59,6.4-.08.65-.31,1.31-.27,1.96.08,1.21.01,2.49.81,3.55.44.59,1.77,1.1,2.78.9,1.37-.27,2.46-.98,3.45-1.91.21-.2.45-.37.68-.55.05-.07.1-.15.16-.21.72-.83,1.47-1.65,2.16-2.51.15-.19.09-.55.13-.84-.27.1-.6.13-.8.31-.86.76-1.65,1.61-2.54,2.34Z"/>
    <path class="cls-2" d="m413.2,127.09c-.03-.07-.06-.13-.09-.2.26-.72.52-1.43.77-2.15.29-.98.59-1.97.88-2.95.35-1.5.6-3.01.52-4.56-.04-.86-.35-1.27-1.22-1.27-.73,0-1.46.17-2.19.27-.27.14-.55.29-.82.43-.47.4-.93.81-1.41,1.21-.56.46-1.12.93-1.72,1.34-.54.37-.88,1.16-.71,1.94.16-.08.34-.12.43-.23.23-.29.44-.6.63-.92.52-.85,1.53-1.01,2.25-1.59.08-.07.26-.02.39-.02.32,0,.64-.01.95-.02.08.32.29.67.21.95-.95,3.3-1.91,6.6-2.94,9.87-.6,1.91-1.34,3.77-2.02,5.66-.47,1.31-.95,2.62-1.42,3.93-.14.39-.27.9.33.94,1.15.07,2.29-.03,3.08-1.08,1.16-3.46,2.56-6.82,4.3-10.04.08-.23.17-.45.25-.68-.14-.27-.27-.53-.41-.8,0,0-.04-.02-.04-.02Z"/>
    <polygon class="cls-2" points="273.18 135.77 273.18 135.77 273.18 135.77 273.18 135.77"/>
    <path class="cls-2" d="m274.01,116.37c-1.06-.37-2.12-.82-3.27-.31-.91.33-1.81.66-2.72.99-.81.64-1.61,1.28-2.42,1.91-.27.21-.79.37-.8.58-.07.94-.68,1.57-1.12,2.29-1.7,2.73-2.91,5.65-3.42,8.85-.31,1.9-.35,3.76.23,5.62.51,1.63,2.62,3.35,4.34,3.42,1.4.06,2.74-.21,4.05-.76,1.4-.59,2.46-1.62,3.63-2.52.23-.22.45-.44.68-.66.14-.14.28-.28.41-.42.12-.17.24-.34.36-.51.06-.07.11-.16.18-.2.41-.24.38-.61.15-.89-.32-.39-.54-.01-.74.22-1.45,1.7-3.3,2.74-5.49,3.13-.9.16-1.8.03-2.65-.38-.64-.31-.6-.96-.85-1.48-.06-.12-.1-.25-.16-.37-.55-1.24-.79-2.53-.75-3.88.02-.83.1-1.66.13-2.49.04-1.2.15-1.39,1.27-1.78,2.43-.85,4.87-1.69,7.31-2.54.49-.26.98-.53,1.46-.79,1.12-.91,2.17-1.89,2.53-3.37,0-.18,0-.36,0-.54l-.06-.26c-.45-1.19-1.11-2.23-2.28-2.85Zm-2.77,6.79c-1.43,1.26-3.19,1.75-4.99,2.15-.53.12-1.07.19-1.6.33-.46.12-.48-.08-.41-.44.18-.95.4-1.89.49-2.84.13-1.31,1.57-2.95,2.88-3.34.85-.25,1.66-.62,2.57-.49,1.33.18,2.53.7,2.18,2.21.18,1.04-.39,1.77-1.13,2.43Z"/>
  </g>
</svg>